<svg xmlns="http://www.w3.org/2000/svg" width="53" height="53" viewBox="0 0 53 53">
  <g id="market" transform="translate(0.032)">
    <g id="Grupo_51" data-name="Grupo 51">
      <rect id="Retângulo_19" data-name="Retângulo 19" width="53" height="53" transform="translate(-0.032)" fill="none"/>
    </g>
    <g id="Grupo_53" data-name="Grupo 53" transform="translate(2.005 2.649)">
      <g id="Grupo_52" data-name="Grupo 52">
        <path id="Caminho_14" data-name="Caminho 14" d="M51.106,18.494,48.514,7A4.924,4.924,0,0,0,43.8,3H9.52A4.924,4.924,0,0,0,4.83,7l-2.591,11.5a9.336,9.336,0,0,0,1.53,7.576,9.831,9.831,0,0,0,.691.763V45.09A5.121,5.121,0,0,0,9.4,50.351H43.949a5.121,5.121,0,0,0,4.936-5.261V26.833a9.452,9.452,0,0,0,.691-.737A9.3,9.3,0,0,0,51.106,18.494ZM43.726,8.235l2.591,11.5a3.751,3.751,0,0,1-.617,3.078,2.85,2.85,0,0,1-2.32,1.236,3.174,3.174,0,0,1-2.986-3L38.963,8.261ZM29.14,8.261h4.837l1.333,11.89a3.693,3.693,0,0,1-.814,2.815,2.866,2.866,0,0,1-2.345,1.079A3.263,3.263,0,0,1,29.14,20.6ZM18.01,20.152l1.357-11.89H24.2V20.6a3.285,3.285,0,0,1-3.184,3.446,2.9,2.9,0,0,1-2.2-1.079A3.9,3.9,0,0,1,18.01,20.152ZM7.027,19.731,9.52,8.261h4.862L12.95,21.046a3.193,3.193,0,0,1-2.986,3,2.8,2.8,0,0,1-2.3-1.236A3.654,3.654,0,0,1,7.027,19.731ZM9.4,45.09V29.227a4.207,4.207,0,0,0,.568.079,7.5,7.5,0,0,0,5.528-2.5,7.7,7.7,0,0,0,5.7,2.5,7.592,7.592,0,0,0,5.5-2.446,7.839,7.839,0,0,0,5.652,2.446,7.608,7.608,0,0,0,5.528-2.5,7.5,7.5,0,0,0,5.528,2.5,4.208,4.208,0,0,0,.568-.079V45.09Z" transform="translate(-2.005 -3)" fill="#4fc3f7"/>
      </g>
    </g>
  </g>
</svg>
