<svg id="store-topo" xmlns="http://www.w3.org/2000/svg" width="40" height="40" viewBox="0 0 40 40">
  <g id="Grupo_58" data-name="Grupo 58">
    <rect id="Retângulo_40" data-name="Retângulo 40" width="40" height="40" fill="none"/>
  </g>
  <g id="Grupo_60" data-name="Grupo 60" transform="translate(2.005 3)">
    <g id="Grupo_59" data-name="Grupo 59">
      <path id="Caminho_20" data-name="Caminho 20" d="M37.821,14.126l-1.89-8.254A3.576,3.576,0,0,0,32.492,3H7.486a3.576,3.576,0,0,0-3.42,2.871l-1.89,8.254a6.62,6.62,0,0,0,1.116,5.44,7.1,7.1,0,0,0,.5.548V33.222A3.7,3.7,0,0,0,7.4,37H32.6a3.7,3.7,0,0,0,3.6-3.778V20.113a6.831,6.831,0,0,0,.5-.529A6.6,6.6,0,0,0,37.821,14.126ZM32.438,6.759l1.89,8.254a2.66,2.66,0,0,1-.45,2.21,2.086,2.086,0,0,1-1.692.888,2.3,2.3,0,0,1-2.178-2.153l-1.044-9.18ZM21.8,6.778h3.529l.972,8.538a2.623,2.623,0,0,1-.594,2.021,2.1,2.1,0,0,1-1.71.774,2.357,2.357,0,0,1-2.2-2.474Zm-8.119,8.538.99-8.538H18.2v8.859a2.374,2.374,0,0,1-2.322,2.474,2.125,2.125,0,0,1-1.6-.774A2.773,2.773,0,0,1,13.679,15.316Zm-8.011-.3L7.486,6.778h3.547l-1.044,9.18a2.312,2.312,0,0,1-2.178,2.153,2.048,2.048,0,0,1-1.674-.888A2.592,2.592,0,0,1,5.668,15.013ZM7.4,33.222V21.832a3.115,3.115,0,0,0,.414.057,5.508,5.508,0,0,0,4.033-1.794A5.656,5.656,0,0,0,16,21.889a5.577,5.577,0,0,0,4.015-1.757,5.761,5.761,0,0,0,4.123,1.757,5.588,5.588,0,0,0,4.033-1.794A5.508,5.508,0,0,0,32.2,21.889a3.115,3.115,0,0,0,.414-.057v11.39Z" transform="translate(-2.005 -3)" fill="#fff"/>
    </g>
  </g>
</svg>
